<svg xmlns="http://www.w3.org/2000/svg" preserveAspectRatio="xMidYMid" width="32" height="36"><path d="M31.639 27.33c-.24.763-.598 1.411-1.073 1.943a4.603 4.603 0 01-1.762 1.217c-.7.28-1.509.42-2.429.42-.907 0-1.699-.119-2.375-.357a4.113 4.113 0 01-1.69-1.086c-.45-.487-.788-1.106-1.014-1.858-.225-.751-.338-1.641-.338-2.669 0-.943.121-1.792.361-2.547.24-.754.598-1.396 1.072-1.925a4.673 4.673 0 011.763-1.217c.7-.283 1.512-.424 2.438-.424.883 0 1.663.117 2.339.352.676.234 1.24.595 1.694 1.082.454.487.796 1.101 1.028 1.844.231.742.347 1.618.347 2.628 0 .968-.121 1.834-.361 2.597zm-2.271-4.143a3.605 3.605 0 00-.491-1.29 2.355 2.355 0 00-.924-.829c-.385-.196-.866-.293-1.443-.293-.582 0-1.069.109-1.46.329a2.68 2.68 0 00-.946.879 3.64 3.64 0 00-.509 1.285 7.838 7.838 0 00-.149 1.555c0 .637.048 1.21.144 1.718.096.508.259.942.487 1.303.228.36.535.635.919.825.385.189.869.284 1.451.284.583 0 1.07-.108 1.461-.325a2.62 2.62 0 00.946-.883c.24-.373.41-.807.509-1.303a8.081 8.081 0 00.149-1.583c0-.613-.048-1.17-.144-1.672zM9.629 30.729a5.034 5.034 0 01-.577.027c-.229 0-.419-.009-.573-.027a1.89 1.89 0 01-.364-.072.407.407 0 01-.194-.117.25.25 0 01-.059-.162V19.359c0-.06.02-.114.059-.162a.421.421 0 01.198-.118c.093-.029.215-.054.365-.072.15-.018.339-.027.568-.027.234 0 .426.009.577.027.15.018.27.043.36.072.09.031.155.07.194.118a.25.25 0 01.059.162v11.019a.25.25 0 01-.059.162.412.412 0 01-.194.117c-.09.03-.21.054-.36.072zM25.75 7.714H20.6V2.571H5.15a2.574 2.574 0 00-2.575 2.572v25.714a2.573 2.573 0 002.575 2.571h5.15V36H5.15A5.147 5.147 0 010 30.857V5.143A5.146 5.146 0 015.15 0h16.079l7.096 7.086v8.342H25.75V7.714zM12.157 28.259a.337.337 0 01.108-.167.261.261 0 01.158-.05c.084 0 .203.05.356.149.153.099.35.209.59.329.24.12.528.23.861.329.334.099.72.149 1.158.149.289 0 .547-.035.775-.104a1.74 1.74 0 00.582-.293c.159-.126.28-.282.365-.469.084-.186.126-.393.126-.622 0-.264-.072-.491-.216-.681a2.17 2.17 0 00-.564-.505 5.838 5.838 0 00-.788-.414c-.295-.13-.598-.266-.911-.411a8.321 8.321 0 01-.91-.491 3.672 3.672 0 01-.789-.658 3.119 3.119 0 01-.563-.906c-.144-.349-.216-.767-.216-1.254 0-.559.103-1.05.311-1.474.207-.424.486-.775.838-1.055a3.582 3.582 0 011.244-.627 5.442 5.442 0 011.518-.207 5.703 5.703 0 011.605.234c.24.073.453.154.64.244.186.09.309.165.369.225s.101.112.122.154a.718.718 0 01.054.166c.015.07.025.157.031.262a6.958 6.958 0 01-.004.834c-.009.12-.024.219-.045.297a.352.352 0 01-.09.172.224.224 0 01-.158.054c-.066 0-.171-.042-.315-.126a7.191 7.191 0 00-.532-.275c-.211-.1-.454-.19-.73-.271a3.233 3.233 0 00-.911-.121c-.258 0-.483.031-.676.094-.192.063-.353.15-.482.262a1.032 1.032 0 00-.288.401 1.311 1.311 0 00-.095.496c0 .258.071.482.212.672.141.189.33.357.568.504.237.148.506.286.807.415.3.13.606.266.919.411.312.144.619.308.919.491.301.183.568.403.802.658.235.256.424.556.568.902.144.346.217.753.217 1.222 0 .613-.115 1.151-.343 1.614a3.337 3.337 0 01-.928 1.158c-.391.31-.848.543-1.37.699a5.84 5.84 0 01-1.677.235 6.223 6.223 0 01-2.037-.339 3.923 3.923 0 01-.662-.293 1.889 1.889 0 01-.383-.27.677.677 0 01-.167-.338 3.094 3.094 0 01-.05-.636c0-.186.006-.343.018-.469.012-.126.032-.228.059-.306z" fill="#4582d4" fill-rule="evenodd"/></svg>