<svg xmlns="http://www.w3.org/2000/svg" preserveAspectRatio="xMidYMid" width="24.91" height="28"><path d="M24.896 15.992a.659.659 0 01-.046.191.295.295 0 01-.074.105.135.135 0 01-.093.035h-2.479v2.039h2.326c.035 0 .067.01.094.03a.236.236 0 01.073.099.65.65 0 01.047.188c.01.078.015.176.015.293 0 .117-.005.215-.015.293a.727.727 0 01-.047.193.26.26 0 01-.073.108.146.146 0 01-.094.033h-2.326v2.824c0 .043-.012.08-.035.111a.26.26 0 01-.126.079c-.061.022-.14.038-.237.05a3.19 3.19 0 01-.375.018c-.149 0-.273-.006-.372-.018a1.07 1.07 0 01-.238-.05.282.282 0 01-.126-.079.172.172 0 01-.038-.111V15.55c0-.172.044-.296.132-.372a.48.48 0 01.325-.115h3.569c.035 0 .066.011.093.033a.262.262 0 01.074.105.707.707 0 01.046.196c.01.083.015.182.015.299 0 .118-.005.216-.015.296zM20 6h-4V2H4a2 2 0 00-2 2v20a2 2 0 002 2h4v2H4a4 4 0 01-4-4V4a4 4 0 014-4h12.488L22 5.511V12h-2V6zM7.767 22.435a.163.163 0 01-.038.105.266.266 0 01-.126.076c-.059.02-.137.035-.234.047a3.19 3.19 0 01-.375.018c-.149 0-.273-.006-.372-.018a1.228 1.228 0 01-.238-.047.25.25 0 01-.123-.076.172.172 0 01-.035-.105v-6.821c0-.183.048-.321.144-.413a.52.52 0 01.378-.138h1.787c.179 0 .35.007.512.021.162.014.357.043.583.088.227.045.456.128.689.249.232.121.43.274.595.46.164.186.289.402.375.65.085.248.128.527.128.835 0 .426-.066.803-.199 1.131a2.179 2.179 0 01-.58.829 2.548 2.548 0 01-.934.513c-.37.117-.804.176-1.304.176h-.633v2.42zm.691-3.61c.247 0 .452-.033.619-.099.166-.067.301-.159.407-.279.105-.119.185-.261.24-.427.055-.166.082-.347.082-.542 0-.266-.047-.485-.141-.657a.976.976 0 00-.345-.381 1.178 1.178 0 00-.431-.155 3.365 3.365 0 00-.466-.032h-.656v2.572h.691zm4.852-3.762h1.945c.676 0 1.249.08 1.72.238.471.158.867.392 1.189.703.323.311.568.694.736 1.151.168.457.252.987.252 1.588 0 .696-.091 1.29-.273 1.784-.182.495-.442.898-.782 1.21a3.14 3.14 0 01-1.239.689c-.487.146-1.066.22-1.738.22h-1.81a.473.473 0 01-.325-.115c-.088-.076-.132-.2-.132-.372V15.55c0-.172.044-.296.132-.372a.478.478 0 01.325-.115zm1.078 6.364h.803c.422 0 .777-.055 1.066-.164.289-.11.53-.275.724-.495.193-.221.337-.496.433-.824.096-.328.144-.711.144-1.148 0-.359-.042-.693-.126-1.002a2.15 2.15 0 00-.404-.803 1.884 1.884 0 00-.715-.53c-.291-.127-.673-.19-1.146-.19h-.779v5.156z" fill="#fff" fill-rule="evenodd"/></svg>