<svg xmlns="http://www.w3.org/2000/svg" xmlns:xlink="http://www.w3.org/1999/xlink" preserveAspectRatio="xMidYMid" width="32" height="36" viewBox="0 0 32 36">
  <defs>
    <style>
      .cls-1 {
        fill: #4582d4;
        fill-rule: evenodd;
      }
    </style>
  </defs>
  <path d="M31.639,27.330 C31.399,28.093 31.041,28.741 30.566,29.273 C30.092,29.805 29.504,30.211 28.804,30.490 C28.104,30.770 27.295,30.910 26.375,30.910 C25.468,30.910 24.676,30.791 24.000,30.553 C23.324,30.316 22.761,29.954 22.310,29.467 C21.860,28.980 21.522,28.361 21.296,27.609 C21.071,26.858 20.958,25.968 20.958,24.940 C20.958,23.997 21.079,23.148 21.319,22.393 C21.559,21.639 21.917,20.997 22.391,20.468 C22.866,19.939 23.453,19.533 24.154,19.251 C24.854,18.968 25.666,18.827 26.592,18.827 C27.475,18.827 28.255,18.944 28.931,19.179 C29.607,19.413 30.171,19.774 30.625,20.261 C31.079,20.748 31.421,21.362 31.653,22.105 C31.884,22.847 32.000,23.723 32.000,24.733 C32.000,25.701 31.879,26.567 31.639,27.330 ZM29.368,23.187 C29.272,22.685 29.108,22.255 28.877,21.897 C28.645,21.540 28.337,21.263 27.953,21.068 C27.568,20.872 27.087,20.775 26.510,20.775 C25.928,20.775 25.441,20.884 25.050,21.104 C24.660,21.323 24.344,21.616 24.104,21.983 C23.864,22.350 23.694,22.778 23.595,23.268 C23.496,23.758 23.446,24.276 23.446,24.823 C23.446,25.460 23.494,26.033 23.590,26.541 C23.686,27.049 23.849,27.483 24.077,27.844 C24.305,28.204 24.612,28.479 24.996,28.669 C25.381,28.858 25.865,28.953 26.447,28.953 C27.030,28.953 27.517,28.845 27.908,28.628 C28.298,28.412 28.614,28.117 28.854,27.745 C29.094,27.372 29.264,26.938 29.363,26.442 C29.462,25.946 29.512,25.418 29.512,24.859 C29.512,24.246 29.464,23.689 29.368,23.187 ZM9.629,30.729 C9.478,30.747 9.286,30.756 9.052,30.756 C8.823,30.756 8.633,30.747 8.479,30.729 C8.326,30.711 8.205,30.687 8.115,30.657 C8.024,30.627 7.960,30.588 7.921,30.540 C7.882,30.492 7.862,30.438 7.862,30.378 L7.862,19.359 C7.862,19.299 7.882,19.245 7.921,19.197 C7.960,19.149 8.026,19.110 8.119,19.079 C8.212,19.050 8.334,19.025 8.484,19.007 C8.634,18.989 8.823,18.980 9.052,18.980 C9.286,18.980 9.478,18.989 9.629,19.007 C9.779,19.025 9.899,19.050 9.989,19.079 C10.079,19.110 10.144,19.149 10.183,19.197 C10.222,19.245 10.242,19.299 10.242,19.359 L10.242,30.378 C10.242,30.438 10.222,30.492 10.183,30.540 C10.144,30.588 10.079,30.627 9.989,30.657 C9.899,30.687 9.779,30.711 9.629,30.729 ZM25.750,7.714 L20.600,7.714 L20.600,2.571 L5.150,2.571 C3.728,2.571 2.575,3.723 2.575,5.143 L2.575,30.857 C2.575,32.277 3.728,33.428 5.150,33.428 L10.300,33.428 L10.300,36.000 L5.150,36.000 C2.306,36.000 -0.000,33.697 -0.000,30.857 L-0.000,5.143 C-0.000,2.302 2.306,-0.000 5.150,-0.000 L21.229,-0.000 L28.325,7.086 L28.325,15.428 L25.750,15.428 L25.750,7.714 ZM12.157,28.259 C12.184,28.181 12.220,28.125 12.265,28.092 C12.310,28.059 12.363,28.042 12.423,28.042 C12.507,28.042 12.626,28.092 12.779,28.191 C12.932,28.290 13.129,28.400 13.369,28.520 C13.609,28.640 13.897,28.750 14.230,28.849 C14.564,28.948 14.950,28.998 15.388,28.998 C15.677,28.998 15.935,28.963 16.163,28.894 C16.392,28.825 16.585,28.727 16.745,28.601 C16.904,28.475 17.025,28.319 17.110,28.132 C17.194,27.946 17.236,27.739 17.236,27.510 C17.236,27.246 17.164,27.019 17.020,26.829 C16.875,26.640 16.688,26.472 16.456,26.324 C16.225,26.177 15.962,26.039 15.668,25.910 C15.373,25.780 15.070,25.644 14.757,25.499 C14.445,25.355 14.141,25.191 13.847,25.008 C13.552,24.825 13.289,24.605 13.058,24.350 C12.827,24.094 12.639,23.792 12.495,23.444 C12.351,23.095 12.279,22.677 12.279,22.190 C12.279,21.631 12.382,21.140 12.590,20.716 C12.797,20.292 13.076,19.941 13.428,19.661 C13.779,19.382 14.194,19.173 14.672,19.034 C15.149,18.896 15.656,18.827 16.190,18.827 C16.467,18.827 16.743,18.848 17.020,18.890 C17.296,18.932 17.554,18.989 17.795,19.061 C18.035,19.134 18.248,19.215 18.435,19.305 C18.621,19.395 18.744,19.470 18.804,19.530 C18.864,19.590 18.905,19.642 18.926,19.684 C18.947,19.726 18.965,19.781 18.980,19.850 C18.995,19.920 19.005,20.007 19.011,20.112 C19.017,20.217 19.021,20.348 19.021,20.504 C19.021,20.679 19.016,20.826 19.007,20.946 C18.998,21.066 18.983,21.165 18.962,21.243 C18.941,21.322 18.911,21.379 18.872,21.415 C18.833,21.451 18.780,21.469 18.714,21.469 C18.648,21.469 18.543,21.427 18.399,21.343 C18.254,21.259 18.077,21.167 17.867,21.068 C17.656,20.968 17.413,20.878 17.137,20.797 C16.860,20.716 16.557,20.676 16.226,20.676 C15.968,20.676 15.743,20.707 15.550,20.770 C15.358,20.833 15.197,20.920 15.068,21.032 C14.939,21.143 14.843,21.277 14.780,21.433 C14.717,21.589 14.685,21.754 14.685,21.929 C14.685,22.187 14.756,22.411 14.897,22.601 C15.038,22.790 15.227,22.958 15.465,23.105 C15.702,23.253 15.971,23.391 16.272,23.520 C16.572,23.650 16.878,23.786 17.191,23.931 C17.503,24.075 17.810,24.239 18.110,24.422 C18.411,24.605 18.678,24.825 18.912,25.080 C19.147,25.336 19.336,25.636 19.480,25.982 C19.624,26.328 19.697,26.735 19.697,27.204 C19.697,27.817 19.582,28.355 19.354,28.818 C19.126,29.281 18.816,29.667 18.426,29.976 C18.035,30.286 17.578,30.519 17.056,30.675 C16.533,30.831 15.974,30.910 15.379,30.910 C14.977,30.910 14.603,30.876 14.257,30.810 C13.911,30.744 13.606,30.665 13.342,30.571 C13.078,30.478 12.857,30.381 12.680,30.278 C12.502,30.176 12.375,30.086 12.297,30.008 C12.219,29.930 12.163,29.817 12.130,29.670 C12.097,29.522 12.080,29.311 12.080,29.034 C12.080,28.848 12.086,28.691 12.098,28.565 C12.110,28.439 12.130,28.337 12.157,28.259 Z" class="cls-1"/>
</svg>
