<svg xmlns="http://www.w3.org/2000/svg" xmlns:xlink="http://www.w3.org/1999/xlink" preserveAspectRatio="xMidYMid" width="24.91" height="28" viewBox="0 0 24.91 28">
  <defs>
    <style>
      .cls-1 {
        fill: #fff;
        fill-rule: evenodd;
      }
    </style>
  </defs>
  <path d="M24.896,15.992 C24.887,16.072 24.871,16.136 24.850,16.183 C24.828,16.230 24.804,16.265 24.776,16.288 C24.749,16.312 24.718,16.323 24.683,16.323 L22.204,16.323 L22.204,18.362 L24.530,18.362 C24.565,18.362 24.597,18.372 24.624,18.392 C24.651,18.411 24.676,18.444 24.697,18.491 C24.719,18.538 24.734,18.601 24.744,18.679 C24.754,18.757 24.759,18.855 24.759,18.972 C24.759,19.089 24.754,19.187 24.744,19.265 C24.734,19.343 24.719,19.407 24.697,19.458 C24.676,19.509 24.651,19.545 24.624,19.566 C24.597,19.588 24.565,19.599 24.530,19.599 L22.204,19.599 L22.204,22.423 C22.204,22.466 22.192,22.503 22.169,22.534 C22.145,22.566 22.103,22.592 22.043,22.613 C21.982,22.635 21.903,22.651 21.806,22.663 C21.708,22.675 21.583,22.681 21.431,22.681 C21.282,22.681 21.158,22.675 21.059,22.663 C20.959,22.651 20.880,22.635 20.821,22.613 C20.763,22.592 20.721,22.566 20.695,22.534 C20.670,22.503 20.657,22.466 20.657,22.423 L20.657,15.550 C20.657,15.378 20.701,15.254 20.789,15.178 C20.877,15.102 20.985,15.063 21.114,15.063 L24.683,15.063 C24.718,15.063 24.749,15.074 24.776,15.096 C24.804,15.117 24.828,15.152 24.850,15.201 C24.871,15.250 24.887,15.316 24.896,15.397 C24.906,15.480 24.911,15.579 24.911,15.696 C24.911,15.814 24.906,15.912 24.896,15.992 ZM20.000,6.000 L16.000,6.000 L16.000,2.000 L4.000,2.000 C2.895,2.000 2.000,2.895 2.000,4.000 L2.000,24.000 C2.000,25.104 2.895,26.000 4.000,26.000 L8.000,26.000 L8.000,28.000 L4.000,28.000 C1.791,28.000 -0.000,26.209 -0.000,24.000 L-0.000,4.000 C-0.000,1.791 1.791,-0.000 4.000,-0.000 L16.488,-0.000 L22.000,5.511 L22.000,12.000 L20.000,12.000 L20.000,6.000 ZM7.767,22.435 C7.767,22.474 7.754,22.509 7.729,22.540 C7.703,22.571 7.662,22.597 7.603,22.616 C7.544,22.636 7.466,22.651 7.369,22.663 C7.271,22.675 7.146,22.681 6.994,22.681 C6.845,22.681 6.721,22.675 6.622,22.663 C6.522,22.651 6.443,22.636 6.384,22.616 C6.326,22.597 6.285,22.571 6.261,22.540 C6.238,22.509 6.226,22.474 6.226,22.435 L6.226,15.614 C6.226,15.431 6.274,15.293 6.370,15.201 C6.465,15.109 6.591,15.063 6.748,15.063 L8.535,15.063 C8.714,15.063 8.885,15.070 9.047,15.084 C9.209,15.098 9.404,15.127 9.630,15.172 C9.857,15.217 10.086,15.300 10.319,15.421 C10.551,15.542 10.749,15.695 10.914,15.881 C11.078,16.067 11.203,16.283 11.289,16.531 C11.374,16.779 11.417,17.058 11.417,17.366 C11.417,17.792 11.351,18.169 11.218,18.497 C11.085,18.825 10.892,19.102 10.638,19.326 C10.384,19.551 10.073,19.722 9.704,19.839 C9.334,19.956 8.900,20.015 8.400,20.015 L7.767,20.015 L7.767,22.435 ZM8.458,18.825 C8.705,18.825 8.910,18.792 9.077,18.726 C9.243,18.659 9.378,18.567 9.484,18.447 C9.589,18.328 9.669,18.186 9.724,18.020 C9.779,17.854 9.806,17.673 9.806,17.478 C9.806,17.212 9.759,16.993 9.665,16.821 C9.572,16.649 9.456,16.523 9.320,16.440 C9.183,16.359 9.039,16.307 8.889,16.285 C8.739,16.264 8.583,16.253 8.423,16.253 L7.767,16.253 L7.767,18.825 L8.458,18.825 ZM13.310,15.063 L15.255,15.063 C15.931,15.063 16.504,15.143 16.975,15.301 C17.446,15.459 17.842,15.693 18.164,16.004 C18.487,16.315 18.732,16.698 18.900,17.155 C19.068,17.612 19.152,18.142 19.152,18.743 C19.152,19.439 19.061,20.033 18.879,20.527 C18.697,21.022 18.437,21.425 18.097,21.737 C17.757,22.050 17.344,22.279 16.858,22.426 C16.371,22.572 15.792,22.646 15.120,22.646 L13.310,22.646 C13.181,22.646 13.072,22.608 12.985,22.531 C12.897,22.455 12.853,22.331 12.853,22.159 L12.853,15.550 C12.853,15.378 12.897,15.254 12.985,15.178 C13.072,15.102 13.181,15.063 13.310,15.063 ZM14.388,21.427 L15.191,21.427 C15.613,21.427 15.968,21.372 16.257,21.263 C16.546,21.153 16.787,20.988 16.981,20.768 C17.174,20.547 17.318,20.272 17.414,19.944 C17.510,19.616 17.558,19.233 17.558,18.796 C17.558,18.437 17.516,18.103 17.432,17.794 C17.348,17.486 17.213,17.218 17.028,16.991 C16.842,16.765 16.604,16.588 16.313,16.461 C16.022,16.334 15.640,16.271 15.167,16.271 L14.388,16.271 L14.388,21.427 Z" class="cls-1"/>
</svg>
