<svg width="50" height="50" viewBox="0 0 50 50" fill="none" xmlns="http://www.w3.org/2000/svg">
<path d="M25 50C38.8071 50 50 38.8071 50 25C50 11.1929 38.8071 0 25 0C11.1929 0 0 11.1929 0 25C0 38.8071 11.1929 50 25 50Z" fill="#00981B"/>
<path d="M25 50C38.8071 50 50 38.8071 50 25C50 11.1929 38.8071 0 25 0C11.1929 0 0 11.1929 0 25C0 38.8071 11.1929 50 25 50Z" fill="url(#paint0_linear)"/>
<g clip-path="url(#clip0)">
<path fill-rule="evenodd" clip-rule="evenodd" d="M24.122 14.002C29.641 13.908 33.284 17.906 35.116 21.576C35.565 22.475 36.702 26.48 35.49 27.423C34.974 27.824 34.185 27.651 33.85 27.163C33.483 26.631 33.747 25.066 33.533 24.197C33.144 22.622 32.419 21.424 31.576 20.309C30.381 18.728 28.472 17.242 26.338 16.623C24.692 16.145 23.093 16.574 22.683 16.133C22.12 15.527 22.358 14.464 23.057 14.175C23.412 14.05 23.643 14.031 24.122 14.002ZM16.323 16.248C18.189 16.228 19.048 17.837 19.748 19.013C20.043 19.509 20.395 20.287 20.151 21.058C19.864 21.962 18.698 22.451 18.51 23.218C18.287 24.129 19.319 25.36 19.661 25.839C20.811 27.447 22.886 29.401 24.525 30.533C24.972 30.841 25.965 31.739 26.856 31.512C27.966 31.23 28.311 29.272 30.195 29.842C31.434 30.217 34.233 32.024 33.821 33.816C33.601 34.771 32.384 35.992 31.691 36.523C29.885 37.908 25.8 35.949 24.525 35.198C20.194 32.647 16.544 28.984 14.222 24.427C13.627 23.259 12.504 20.454 13.244 18.783C13.539 18.116 14.788 16.985 15.402 16.594C15.678 16.418 15.947 16.325 16.323 16.248ZM24.698 18.408C27.819 18.812 29.673 20.726 30.914 23.045C31.309 23.784 32.103 25.725 31.144 26.386C30.626 26.743 29.781 26.495 29.504 26.011C29.312 25.522 29.101 24.965 28.957 24.427C28.568 23.426 27.877 22.529 27.086 21.922C26.687 21.615 26.198 21.311 25.705 21.115C24.94 20.811 23.911 20.725 23.575 20.194C23.226 19.641 23.587 18.853 23.949 18.61C24.16 18.469 24.467 18.404 24.698 18.408Z" fill="white"/>
</g>
<defs>
<linearGradient id="paint0_linear" x1="25" y1="0" x2="25" y2="50" gradientUnits="userSpaceOnUse">
<stop stop-color="#42A867" stop-opacity="0.45"/>
<stop offset="1" stop-color="white" stop-opacity="0"/>
</linearGradient>
<clipPath id="clip0">
<rect width="23.03" height="23" fill="white" transform="translate(13 14)"/>
</clipPath>
</defs>
</svg>
