<svg xmlns="http://www.w3.org/2000/svg" xmlns:xlink="http://www.w3.org/1999/xlink" preserveAspectRatio="xMidYMid" width="23.03" height="23" viewBox="0 0 23.03 23">
  <defs>
    <style>
      .cls-1 {
        fill: #fff;
        fill-rule: evenodd;
      }
    </style>
  </defs>
  <path d="M11.122,0.002 C16.641,-0.092 20.284,3.906 22.116,7.576 C22.565,8.475 23.702,12.480 22.490,13.423 C21.974,13.824 21.185,13.651 20.850,13.163 C20.483,12.631 20.747,11.066 20.533,10.197 C20.144,8.622 19.419,7.424 18.576,6.309 C17.381,4.728 15.472,3.242 13.338,2.623 C11.692,2.145 10.093,2.574 9.683,2.133 C9.120,1.527 9.358,0.464 10.057,0.175 C10.412,0.050 10.643,0.031 11.122,0.002 ZM3.323,2.248 C5.189,2.228 6.048,3.837 6.748,5.013 C7.043,5.509 7.395,6.287 7.151,7.058 C6.864,7.962 5.698,8.451 5.510,9.218 C5.287,10.129 6.319,11.360 6.661,11.839 C7.811,13.447 9.886,15.401 11.525,16.533 C11.972,16.841 12.965,17.739 13.856,17.512 C14.966,17.230 15.311,15.272 17.195,15.842 C18.434,16.217 21.233,18.024 20.821,19.816 C20.601,20.771 19.384,21.992 18.691,22.523 C16.885,23.908 12.800,21.949 11.525,21.198 C7.194,18.647 3.544,14.984 1.222,10.427 C0.627,9.259 -0.496,6.454 0.244,4.783 C0.539,4.116 1.788,2.985 2.402,2.594 C2.678,2.418 2.947,2.325 3.323,2.248 ZM11.698,4.408 C14.819,4.812 16.673,6.726 17.914,9.045 C18.309,9.784 19.103,11.725 18.144,12.386 C17.626,12.743 16.781,12.495 16.504,12.011 C16.312,11.522 16.101,10.965 15.957,10.427 C15.568,9.426 14.877,8.529 14.086,7.922 C13.687,7.615 13.198,7.311 12.705,7.115 C11.940,6.811 10.911,6.725 10.575,6.194 C10.226,5.641 10.587,4.853 10.949,4.610 C11.160,4.469 11.467,4.404 11.698,4.408 Z" class="cls-1"/>
</svg>
