<svg xmlns="http://www.w3.org/2000/svg" xmlns:xlink="http://www.w3.org/1999/xlink" preserveAspectRatio="xMidYMid" width="30.719" height="27" viewBox="0 0 30.719 27">
  <defs>
    <style>
      .cls-1 {
        fill: #fff;
        fill-rule: evenodd;
      }
    </style>
  </defs>
  <path d="M28.233,0.001 C29.565,-0.022 30.304,0.526 30.621,1.480 C30.844,2.151 30.635,3.014 30.479,3.607 C30.310,4.254 30.296,4.879 30.125,5.526 C29.924,6.283 29.836,7.126 29.628,7.884 C29.570,8.095 29.591,8.269 29.534,8.485 C29.343,9.204 29.259,10.006 29.061,10.727 C29.003,10.938 29.023,11.112 28.966,11.328 C28.795,11.975 28.743,12.666 28.564,13.339 C28.446,13.788 28.411,14.279 28.281,14.750 C27.815,16.437 27.660,18.260 27.217,19.951 C27.150,20.205 27.167,20.419 27.099,20.668 C26.815,21.698 26.707,22.828 26.437,23.858 C26.320,24.305 26.341,24.737 26.200,25.176 C26.125,25.412 25.962,25.675 25.822,25.869 C25.233,26.688 23.778,27.351 22.394,26.794 C21.794,26.553 21.373,26.084 20.881,25.731 C19.947,25.059 19.050,24.367 18.115,23.696 C17.670,23.377 17.243,23.026 16.792,22.702 C16.683,22.624 16.484,22.382 16.366,22.402 C16.034,22.594 15.816,22.942 15.515,23.164 C14.841,23.664 14.298,24.307 13.624,24.806 C13.356,25.004 13.155,25.323 12.867,25.499 C12.087,25.978 10.924,25.843 10.432,25.199 C9.925,24.533 9.740,23.657 9.439,22.771 C8.998,21.470 8.602,20.100 8.163,18.795 C8.015,18.355 7.916,17.919 7.761,17.501 C7.714,17.339 7.666,17.177 7.619,17.015 C7.461,16.969 7.304,16.923 7.146,16.877 C6.740,16.730 6.318,16.614 5.893,16.460 C4.855,16.085 3.765,15.773 2.726,15.397 C1.822,15.070 1.025,14.882 0.503,14.195 C-0.001,13.531 -0.259,12.687 0.291,11.837 C0.803,11.045 1.822,10.773 2.749,10.380 C4.435,9.666 6.152,9.000 7.855,8.277 C12.513,6.300 17.262,4.426 21.922,2.451 C23.443,1.806 24.979,1.215 26.484,0.579 C26.882,0.410 27.283,0.246 27.690,0.116 C27.855,0.063 28.096,0.091 28.233,0.001 ZM28.281,2.359 C19.732,5.880 11.180,9.402 2.631,12.923 C2.631,12.931 2.631,12.939 2.631,12.946 C2.834,12.966 3.027,13.068 3.198,13.131 C3.596,13.278 3.996,13.383 4.380,13.524 C5.527,13.946 6.683,14.216 7.832,14.634 C8.239,14.782 8.660,14.896 9.085,15.050 C9.206,15.094 9.474,15.224 9.558,15.212 C9.942,15.036 10.294,14.759 10.645,14.542 C11.433,14.054 12.230,13.589 13.009,13.108 C15.409,11.627 17.841,10.241 20.243,8.762 C21.187,8.181 22.150,7.616 23.103,7.028 C23.500,6.784 23.862,6.391 24.475,6.381 C24.513,6.417 24.559,6.431 24.593,6.474 C24.643,6.537 24.658,6.671 24.664,6.774 C24.200,7.312 23.678,7.852 23.103,8.277 C23.001,8.385 22.899,8.492 22.796,8.600 C22.534,8.794 22.326,9.031 22.063,9.225 C21.961,9.332 21.858,9.440 21.756,9.548 C21.118,10.020 20.621,10.648 19.983,11.120 C19.740,11.299 19.564,11.588 19.321,11.767 C18.426,12.429 17.734,13.326 16.839,13.987 C16.605,14.160 16.434,14.438 16.201,14.611 C15.336,15.250 14.598,16.103 13.789,16.807 C13.649,16.929 13.514,17.043 13.364,17.154 C13.261,17.262 13.159,17.370 13.056,17.478 C13.011,17.511 12.941,17.523 12.914,17.570 C12.623,19.412 12.331,21.254 12.040,23.095 C12.048,23.095 12.056,23.095 12.063,23.095 C12.156,22.968 12.313,22.866 12.442,22.771 C12.625,22.636 12.772,22.449 12.962,22.309 C13.236,22.107 13.444,21.795 13.718,21.592 C14.009,21.377 14.237,21.087 14.522,20.876 C14.770,20.693 15.012,20.487 15.231,20.275 C15.473,20.041 15.746,19.838 15.988,19.604 C16.062,19.532 16.178,19.372 16.271,19.396 C16.442,19.453 16.563,19.623 16.697,19.720 C17.076,19.993 17.436,20.284 17.808,20.552 C19.086,21.471 20.311,22.432 21.591,23.349 C22.004,23.646 22.397,23.977 22.820,24.274 C23.089,24.463 23.220,24.686 23.695,24.690 C23.761,24.624 23.858,24.589 23.907,24.505 C23.923,24.413 23.939,24.320 23.955,24.228 C24.047,23.893 24.069,23.520 24.167,23.164 C24.420,22.248 24.507,21.238 24.758,20.321 C24.816,20.110 24.796,19.936 24.853,19.720 C25.024,19.072 25.077,18.382 25.255,17.709 C25.426,17.061 25.479,16.371 25.657,15.697 C26.081,14.089 26.252,12.360 26.673,10.750 C26.962,9.648 27.040,8.499 27.335,7.421 C27.382,7.144 27.430,6.866 27.477,6.589 C27.728,5.634 27.837,4.589 28.092,3.630 C28.175,3.316 28.205,2.998 28.281,2.705 C28.306,2.606 28.326,2.434 28.281,2.359 Z" class="cls-1"/>
</svg>
