<svg xmlns="http://www.w3.org/2000/svg" xmlns:xlink="http://www.w3.org/1999/xlink" preserveAspectRatio="xMidYMid" width="30" height="33" viewBox="0 0 30 33">
  <defs>
    <style>
      .cls-1 {
        fill: #fff;
        fill-rule: evenodd;
      }
    </style>
  </defs>
  <path d="M7.114,33.000 C7.106,31.026 7.121,29.030 7.114,27.057 C6.205,27.101 -0.004,26.610 -0.000,13.986 C0.004,-0.010 9.206,-0.010 14.877,-0.000 C20.525,-0.010 29.990,-0.055 30.000,13.986 C29.990,27.910 22.449,27.101 18.702,27.727 C17.613,27.757 14.489,27.965 13.400,27.995 C12.960,28.457 12.520,28.919 12.080,29.380 C10.850,30.587 9.619,31.793 8.389,33.000 C7.964,33.000 7.539,33.000 7.114,33.000 ZM14.742,1.542 C8.848,1.542 1.431,1.542 1.431,13.964 C1.431,19.001 2.595,23.823 5.548,24.957 C6.553,25.342 8.438,25.957 8.478,26.364 C8.554,27.120 8.549,29.736 8.546,30.833 C9.931,29.470 12.256,26.657 13.154,26.655 C27.126,26.610 28.590,22.661 28.590,13.986 C28.590,1.753 20.660,1.542 14.742,1.542 ZM15.414,5.027 C19.638,4.964 22.234,7.379 23.311,10.479 C23.588,11.276 23.925,14.405 23.132,14.992 C22.717,15.299 22.084,15.037 21.968,14.634 C21.830,14.153 22.244,12.955 22.125,12.199 C21.844,10.421 21.290,9.157 20.156,8.244 C19.274,7.534 18.380,6.962 17.069,6.658 C16.626,6.555 15.981,6.463 15.436,6.546 C14.945,6.621 14.129,6.845 13.803,6.591 C13.662,6.481 13.540,6.248 13.534,6.010 C13.510,5.015 14.732,5.051 15.414,5.027 ZM8.434,6.546 C9.893,6.537 11.073,8.646 11.655,9.630 C11.862,9.980 12.326,10.501 12.192,11.126 C11.976,12.137 10.724,12.227 10.514,13.294 C10.341,14.175 11.282,15.519 11.633,15.997 C12.410,17.056 13.454,17.835 14.675,18.455 C15.032,18.636 15.553,19.009 16.129,18.857 C17.273,18.556 17.361,16.634 19.261,17.427 C20.006,17.738 22.525,19.564 22.796,20.242 C23.165,21.168 22.099,22.468 21.633,22.834 C21.130,23.229 20.560,23.574 19.798,23.705 C19.171,23.814 18.664,23.494 18.277,23.326 C17.308,22.903 16.406,22.461 15.548,21.940 C11.732,19.627 9.285,16.981 7.024,13.115 C6.793,12.571 6.562,12.028 6.331,11.484 C5.803,10.196 5.309,9.016 6.286,7.753 C6.648,7.285 7.231,6.931 7.830,6.703 C8.031,6.650 8.232,6.598 8.434,6.546 ZM15.481,7.261 C18.529,7.225 20.316,8.845 21.118,11.059 C21.332,11.650 21.732,13.837 21.118,14.299 C20.765,14.565 20.177,14.401 20.000,14.098 C19.827,13.804 20.069,12.895 19.977,12.355 C19.812,11.384 19.449,10.702 18.948,10.076 C18.376,9.360 17.428,8.903 16.331,8.713 C15.785,8.619 14.999,8.928 14.586,8.691 C14.118,8.423 14.164,7.557 14.675,7.373 C14.944,7.336 15.212,7.298 15.481,7.261 ZM15.637,9.473 C17.472,9.444 18.487,10.375 19.015,11.663 C19.195,12.100 19.521,13.204 19.038,13.562 C18.740,13.783 18.179,13.710 17.986,13.450 C17.817,13.221 17.888,12.818 17.807,12.489 C17.687,12.000 17.395,11.552 17.047,11.283 C16.841,11.124 16.558,10.984 16.286,10.903 C15.808,10.761 15.310,10.903 15.078,10.523 C14.739,9.967 15.264,9.476 15.637,9.473 Z" class="cls-1"/>
</svg>
