<svg xmlns="http://www.w3.org/2000/svg" xmlns:xlink="http://www.w3.org/1999/xlink" preserveAspectRatio="xMidYMid" width="30" height="30" viewBox="0 0 30 30">
  <defs>
    <style>
      .cls-1 {
        fill: #fff;
        fill-rule: evenodd;
      }
    </style>
  </defs>
  <path d="M15.000,30.000 C12.366,30.000 9.892,29.320 7.741,28.129 L-0.000,30.000 L1.978,22.451 C0.720,20.256 -0.000,17.712 -0.000,15.000 C-0.000,6.716 6.715,-0.000 15.000,-0.000 C23.284,-0.000 30.000,6.716 30.000,15.000 C30.000,23.284 23.284,30.000 15.000,30.000 ZM14.981,2.512 C8.095,2.512 2.512,8.095 2.512,14.981 C2.512,17.589 3.313,20.010 4.683,22.012 L3.450,26.587 L8.124,25.396 C10.091,26.694 12.448,27.450 14.981,27.450 C21.867,27.450 27.450,21.867 27.450,14.981 C27.450,8.095 21.867,2.512 14.981,2.512 ZM16.762,21.750 C12.845,20.227 9.829,17.700 7.987,14.137 C6.733,11.711 7.332,8.996 9.562,8.025 C10.009,7.837 10.487,7.827 10.837,8.137 C11.027,8.263 12.524,11.619 12.450,11.962 C12.268,12.803 11.271,13.093 11.175,13.950 C12.249,16.170 14.285,17.934 16.762,18.750 C17.710,18.380 17.866,17.159 18.750,16.762 C19.602,16.841 21.878,18.068 22.500,18.525 C22.754,21.675 19.524,22.824 16.762,21.750 Z" class="cls-1"/>
</svg>
