<svg xmlns="http://www.w3.org/2000/svg" preserveAspectRatio="xMidYMid" width="23.03" height="23"><path d="M11.122.002c5.519-.094 9.162 3.904 10.994 7.574.449.899 1.586 4.904.374 5.847-.516.401-1.305.228-1.64-.26-.367-.532-.103-2.097-.317-2.966-.389-1.575-1.114-2.773-1.957-3.888-1.195-1.581-3.104-3.067-5.238-3.686-1.646-.478-3.245-.049-3.655-.49-.563-.606-.325-1.669.374-1.958.355-.125.586-.144 1.065-.173zM3.323 2.248c1.866-.02 2.725 1.589 3.425 2.765.295.496.647 1.274.403 2.045-.287.904-1.453 1.393-1.641 2.16-.223.911.809 2.142 1.151 2.621 1.15 1.608 3.225 3.562 4.864 4.694.447.308 1.44 1.206 2.331.979 1.11-.282 1.455-2.24 3.339-1.67 1.239.375 4.038 2.182 3.626 3.974-.22.955-1.437 2.176-2.13 2.707-1.806 1.385-5.891-.574-7.166-1.325-4.331-2.551-7.981-6.214-10.303-10.771C.627 9.259-.496 6.454.244 4.783c.295-.667 1.544-1.798 2.158-2.189.276-.176.545-.269.921-.346zm8.375 2.16c3.121.404 4.975 2.318 6.216 4.637.395.739 1.189 2.68.23 3.341-.518.357-1.363.109-1.64-.375a15.263 15.263 0 01-.547-1.584 5.944 5.944 0 00-1.871-2.505 5.979 5.979 0 00-1.381-.807c-.765-.304-1.794-.39-2.13-.921-.349-.553.012-1.341.374-1.584.211-.141.518-.206.749-.202z" fill="#fff" fill-rule="evenodd"/></svg>