<svg xmlns="http://www.w3.org/2000/svg" preserveAspectRatio="xMidYMid" width="30.719" height="27"><path d="M28.233.001c1.332-.023 2.071.525 2.388 1.479.223.671.014 1.534-.142 2.127-.169.647-.183 1.272-.354 1.919-.201.757-.289 1.6-.497 2.358-.058.211-.037.385-.094.601-.191.719-.275 1.521-.473 2.242-.058.211-.038.385-.095.601-.171.647-.223 1.338-.402 2.011-.118.449-.153.94-.283 1.411-.466 1.687-.621 3.51-1.064 5.201-.067.254-.05.468-.118.717-.284 1.03-.392 2.16-.662 3.19-.117.447-.096.879-.237 1.318-.075.236-.238.499-.378.693-.589.819-2.044 1.482-3.428.925-.6-.241-1.021-.71-1.513-1.063-.934-.672-1.831-1.364-2.766-2.035-.445-.319-.872-.67-1.323-.994-.109-.078-.308-.32-.426-.3-.332.192-.55.54-.851.762-.674.5-1.217 1.143-1.891 1.642-.268.198-.469.517-.757.693-.78.479-1.943.344-2.435-.3-.507-.666-.692-1.542-.993-2.428-.441-1.301-.837-2.671-1.276-3.976-.148-.44-.247-.876-.402-1.294l-.142-.486-.473-.138c-.406-.147-.828-.263-1.253-.417-1.038-.375-2.128-.687-3.167-1.063-.904-.327-1.701-.515-2.223-1.202-.504-.664-.762-1.508-.212-2.358.512-.792 1.531-1.064 2.458-1.457C4.435 9.666 6.152 9 7.855 8.277c4.658-1.977 9.407-3.851 14.067-5.826 1.521-.645 3.057-1.236 4.562-1.872.398-.169.799-.333 1.206-.463.165-.053.406-.025.543-.115zm.048 2.358L2.631 12.923v.023c.203.02.396.122.567.185.398.147.798.252 1.182.393 1.147.422 2.303.692 3.452 1.11.407.148.828.262 1.253.416.121.044.389.174.473.162.384-.176.736-.453 1.087-.67.788-.488 1.585-.953 2.364-1.434 2.4-1.481 4.832-2.867 7.234-4.346.944-.581 1.907-1.146 2.86-1.734.397-.244.759-.637 1.372-.647.038.036.084.05.118.093.05.063.065.197.071.3-.464.538-.986 1.078-1.561 1.503l-.307.323c-.262.194-.47.431-.733.625l-.307.323c-.638.472-1.135 1.1-1.773 1.572-.243.179-.419.468-.662.647-.895.662-1.587 1.559-2.482 2.22-.234.173-.405.451-.638.624-.865.639-1.603 1.492-2.412 2.196-.14.122-.275.236-.425.347l-.308.324c-.045.033-.115.045-.142.092l-.874 5.525h.023c.093-.127.25-.229.379-.324.183-.135.33-.322.52-.462.274-.202.482-.514.756-.717.291-.215.519-.505.804-.716.248-.183.49-.389.709-.601.242-.234.515-.437.757-.671.074-.072.19-.232.283-.208.171.057.292.227.426.324.379.273.739.564 1.111.832 1.278.919 2.503 1.88 3.783 2.797.413.297.806.628 1.229.925.269.189.4.412.875.416.066-.066.163-.101.212-.185l.048-.277c.092-.335.114-.708.212-1.064.253-.916.34-1.926.591-2.843.058-.211.038-.385.095-.601.171-.648.224-1.338.402-2.011.171-.648.224-1.338.402-2.012.424-1.608.595-3.337 1.016-4.947.289-1.102.367-2.251.662-3.329l.142-.832c.251-.955.36-2 .615-2.959.083-.314.113-.632.189-.925.025-.099.045-.271 0-.346z" fill="#fff" fill-rule="evenodd"/></svg>