<svg xmlns="http://www.w3.org/2000/svg" preserveAspectRatio="xMidYMid" width="30" height="33"><path d="M7.114 33c-.008-1.974.007-3.97 0-5.943-.909.044-7.118-.447-7.114-13.071C.004-.01 9.206-.01 14.877 0 20.525-.01 29.99-.055 30 13.986c-.01 13.924-7.551 13.115-11.298 13.741-1.089.03-4.213.238-5.302.268l-1.32 1.385L8.389 33H7.114zm7.628-31.458c-5.894 0-13.311 0-13.311 12.422 0 5.037 1.164 9.859 4.117 10.993 1.005.385 2.89 1 2.93 1.407.076.756.071 3.372.068 4.469 1.385-1.363 3.71-4.176 4.608-4.178 13.972-.045 15.436-3.994 15.436-12.669 0-12.233-7.93-12.444-13.848-12.444zm.672 3.485c4.224-.063 6.82 2.352 7.897 5.452.277.797.614 3.926-.179 4.513-.415.307-1.048.045-1.164-.358-.138-.481.276-1.679.157-2.435-.281-1.778-.835-3.042-1.969-3.955-.882-.71-1.776-1.282-3.087-1.586-.443-.103-1.088-.195-1.633-.112-.491.075-1.307.299-1.633.045-.141-.11-.263-.343-.269-.581-.024-.995 1.198-.959 1.88-.983zm-6.98 1.519c1.459-.009 2.639 2.1 3.221 3.084.207.35.671.871.537 1.496-.216 1.011-1.468 1.101-1.678 2.168-.173.881.768 2.225 1.119 2.703.777 1.059 1.821 1.838 3.042 2.458.357.181.878.554 1.454.402 1.144-.301 1.232-2.223 3.132-1.43.745.311 3.264 2.137 3.535 2.815.369.926-.697 2.226-1.163 2.592-.503.395-1.073.74-1.835.871-.627.109-1.134-.211-1.521-.379-.969-.423-1.871-.865-2.729-1.386-3.816-2.313-6.263-4.959-8.524-8.825l-.693-1.631c-.528-1.288-1.022-2.468-.045-3.731.362-.468.945-.822 1.544-1.05l.604-.157zm7.047.715c3.048-.036 4.835 1.584 5.637 3.798.214.591.614 2.778 0 3.24-.353.266-.941.102-1.118-.201-.173-.294.069-1.203-.023-1.743a4.722 4.722 0 00-1.029-2.279c-.572-.716-1.52-1.173-2.617-1.363-.546-.094-1.332.215-1.745-.022-.468-.268-.422-1.134.089-1.318l.806-.112zm.156 2.212c1.835-.029 2.85.902 3.378 2.19.18.437.506 1.541.023 1.899-.298.221-.859.148-1.052-.112-.169-.229-.098-.632-.179-.961-.12-.489-.412-.937-.76-1.206a2.447 2.447 0 00-.761-.38c-.478-.142-.976 0-1.208-.38-.339-.556.186-1.047.559-1.05z" fill="#fff" fill-rule="evenodd"/></svg>