<svg xmlns="http://www.w3.org/2000/svg" preserveAspectRatio="xMidYMid" width="30" height="30"><path d="M15 30c-2.634 0-5.108-.68-7.259-1.871L0 30l1.978-7.549A14.939 14.939 0 010 15C0 6.716 6.715 0 15 0c8.284 0 15 6.716 15 15 0 8.284-6.716 15-15 15zm-.019-27.488c-6.886 0-12.469 5.583-12.469 12.469 0 2.608.801 5.029 2.171 7.031L3.45 26.587l4.674-1.191a12.409 12.409 0 006.857 2.054c6.886 0 12.469-5.583 12.469-12.469 0-6.886-5.583-12.469-12.469-12.469zm1.781 19.238c-3.917-1.523-6.933-4.05-8.775-7.613-1.254-2.426-.655-5.141 1.575-6.112.447-.188.925-.198 1.275.112.19.126 1.687 3.482 1.613 3.825-.182.841-1.179 1.131-1.275 1.988 1.074 2.22 3.11 3.984 5.587 4.8.948-.37 1.104-1.591 1.988-1.988.852.079 3.128 1.306 3.75 1.763.254 3.15-2.976 4.299-5.738 3.225z" fill="#fff" fill-rule="evenodd"/></svg>